<?xml version="1.0" encoding="utf-8"?>
<!-- Generator: Adobe Illustrator 22.1.0, SVG Export Plug-In . SVG Version: 6.00 Build 0)  -->
<svg version="1.1" id="Layer_1" xmlns="http://www.w3.org/2000/svg" xmlns:xlink="http://www.w3.org/1999/xlink" x="0px" y="0px"
	 viewBox="0 0 121 30" style="enable-background:new 0 0 121 30;" xml:space="preserve">
<path d="M62.5,8.8l-4.9,2.9h-3V18h3l4.9,2.9V8.8L62.5,8.8L62.5,8.8z M67.9,17.7L66.2,16l-1.7,1.7c-0.4,0.4-1.4-0.7-1-1l1.7-1.7
	l-1.7-1.7c-0.4-0.4,0.7-1.4,1-1.1l1.7,1.7l1.7-1.7c0.4-0.4,1.4,0.7,1,1l-1.7,1.7l1.7,1.7C69.3,17,68.3,18.1,67.9,17.7L67.9,17.7z"/>
<g>
	<path d="M1.4,22.1l0.3-1.6h1.1l1.7-10.4H3.3l0.3-1.6h3.2c2.6,0,3.5,1.3,3.1,3.6c-0.2,1.2-0.7,2.2-1.6,2.8c1.1,0.5,1.5,1.7,1.2,3.3
		c-0.4,2.4-1.8,3.9-4,3.9H1.4z M5.5,20.5c1.2,0,2.3-0.3,2.6-2.2c0.2-1.4-0.3-2.4-1.5-2.4H4.7L4,20.5H5.5z M6.4,14.3
		c1.1,0,1.9-1,2.1-2.2C8.8,10.5,8,10,7.1,10H5.6L5,14.3H6.4z"/>
	<path d="M14.9,8.5h1.3l-1.9,12h5.3l-0.3,1.6h-6.6L14.9,8.5z"/>
	<path d="M30.4,15.3c-0.2,1.1-1.2,7-4.7,7c-1.6,0-3.4-1.6-2.5-7s3.1-7,4.8-7C29.6,8.3,31.3,9.9,30.4,15.3z M24.6,15.3
		c-0.3,2-0.6,5.4,1.4,5.4s2.8-3.4,3.1-5.4c0.3-2,0.6-5.4-1.4-5.4C25.7,9.9,24.9,13.3,24.6,15.3z"/>
	<path d="M40.3,19.5c-1.1,1.7-2.2,2.8-3.8,2.8c-3,0-3.3-3.6-2.8-7c0.9-5.4,3.3-7,4.9-7c1.6,0,2.3,1.1,2.8,2.9L40,12
		c-0.3-1.1-0.7-2.1-1.7-2.1c-2,0-3,3.3-3.3,5.4s-0.5,5.4,1.6,5.4c1.2,0,2-1,2.8-2.2L40.3,19.5z"/>
	<path d="M46.5,14.3H47l4.5-6.1l0.8,1L48,14.9l3,6.4l-1.2,1.1l-3-6.7h-0.4l-1,6.3H44l2.2-13.5h1.3L46.5,14.3z"/>
</g>
<g>
	<path d="M71.4,17.8c0,1.7,0.4,2.9,1.8,2.9c1.1,0,2.1-0.8,2.3-2.3c0.3-1.7-0.7-2.1-1.6-2.6c-1.4-0.8-2.7-1.4-2.3-3.9
		c0.4-2.3,2-3.6,3.6-3.6c1.7,0,2.5,1.3,2.6,3.4l-1.3,0.5c0-1.3-0.4-2.3-1.5-2.3c-0.8,0-1.7,0.6-1.9,1.8c-0.2,1.3,0.3,1.7,1,2.1
		l2,1.3c0.8,0.7,1.1,1.8,0.9,3.2c-0.4,2.6-2,4-3.9,4s-2.8-1.6-2.8-4L71.4,17.8z"/>
	<path d="M88,15.3c-0.2,1.1-1.2,7-4.7,7c-1.6,0-3.4-1.6-2.5-7s3.1-7,4.8-7C87.1,8.3,88.9,9.9,88,15.3z M82.1,15.3
		c-0.3,2-0.6,5.4,1.4,5.4s2.8-3.4,3.1-5.4c0.3-2,0.6-5.4-1.4-5.4C83.3,9.9,82.5,13.3,82.1,15.3z"/>
	<path d="M94,8.5l-1.5,9.2c-0.3,2,0,2.9,1.3,2.9c1.6,0,2.1-1,2.5-2.9l1.5-9.2h1.3l-1.6,10.1c-0.3,1.8-1.5,3.7-3.8,3.7
		c-2.2,0-2.9-1.8-2.6-3.8l1.6-10C92.7,8.5,94,8.5,94,8.5z"/>
	<path d="M103,8.5h1.6l2.1,11.4l0.1-0.1l0.4-3.5l1.3-7.9h1.3l-2.2,13.5H106l-2.1-11.4v0.1l-0.4,3.5l-1.3,7.8h-1.3L103,8.5z"/>
	<path d="M113.3,8.5h3.4c2.9,0,3.9,1.6,3.1,6.6c-0.7,4.2-1.7,6.9-5.3,6.9h-3.4l0.3-1.6h1.1l1.7-10.4H113L113.3,8.5z M113.7,20.5h1.4
		c1.7,0,2.7-1.3,3.3-5.2c0.7-4.2-0.1-5.2-1.7-5.2h-1.3L113.7,20.5z"/>
</g>
</svg>
