<?xml version="1.0" encoding="utf-8"?>
<!-- Generator: Adobe Illustrator 22.1.0, SVG Export Plug-In . SVG Version: 6.00 Build 0)  -->
<svg version="1.1" id="Layer_1" xmlns="http://www.w3.org/2000/svg" xmlns:xlink="http://www.w3.org/1999/xlink" x="0px" y="0px"
	 viewBox="0 0 121 30" style="enable-background:new 0 0 121 30;" xml:space="preserve">
<style type="text/css">
	.st0{fill:none;stroke:#000000;stroke-miterlimit:10;}
	.st1{fill-rule:evenodd;clip-rule:evenodd;}
</style>
<text transform="matrix(0.7518 0 0 1 277.9697 -57.9082)" style="font-family:'OratorStd-Slanted'; font-size:23.9894px; letter-spacing:-1.3;">block</text>
<text transform="matrix(0.7518 0 0 1 326.9697 -57.9082)" style="font-family:'OratorStd-Slanted'; font-size:23.9894px;">sound</text>
<line class="st0" x1="262" y1="-51.5" x2="275" y2="-51.5"/>
<line class="st0" x1="263" y1="-76.5" x2="274.5" y2="-76.5"/>
<line class="st0" x1="274.5" y1="-51.5" x2="274.5" y2="-76.5"/>
<line class="st0" x1="262.5" y1="-51.5" x2="262.5" y2="-76.5"/>
<path class="st1" d="M119.9-40l-2.4,1.4H116v3h1.5l2.4,1.4V-40L119.9-40L119.9-40z M122.5-35.8l-0.8-0.8l-0.8,0.8
	c-0.2,0.2-0.7-0.3-0.5-0.5l0.8-0.8l-0.8-0.8c-0.2-0.2,0.3-0.7,0.5-0.5l0.8,0.8l0.8-0.8c0.2-0.2,0.7,0.3,0.5,0.5l-0.8,0.8l0.8,0.8
	C123.1-36.2,122.6-35.7,122.5-35.8L122.5-35.8z"/>
<path class="st1" d="M392.1-101l-5.2,3.1l-3.2,0l0,6.8l3.2,0l5.3,3.1L392.1-101L392.1-101L392.1-101z M397.8-91.6l-1.8-1.8l-1.8,1.8
	c-0.4,0.4-1.5-0.7-1.1-1.1l1.8-1.8l-1.8-1.8c-0.4-0.4,0.7-1.5,1.1-1.1l1.8,1.8l1.8-1.8c0.4-0.4,1.5,0.7,1.1,1.1l-1.8,1.8l1.8,1.8
	C399.3-92.3,398.2-91.2,397.8-91.6L397.8-91.6z"/>
<path d="M269.6-65.3c-0.2,0-0.5,0-0.7,0.1l-0.3-2c1.5-1.5,2.5-2.9,2.8-4c0.5-1.7,0.2-3-0.9-3.5l0,0c-0.8-0.2-2.4,0.8-2.9,2.7
	c-0.1,0.5-0.1,1.3,0,1.8c0.1,0.6,0.3,1.2,0.4,1.6c-0.2,0.2-0.5,0.4-0.7,0.6c-0.8,0.7-1.6,1.3-2.2,2.1c-0.7,0.9-1.1,1.7-1.1,2.9
	c0,2.5,2,4,4.5,4l0.1,0c0,0,0,0,0.1,0c0.2,0,0.6,0,0.9,0l0.3,2.3c0.2,1.4-0.5,2.4-1.7,2.5c-0.1,0-0.2,0-0.3,0
	c-0.4,0-0.8-0.1-1.2-0.3c0.1,0,0.3,0,0.4,0c0.8,0,1.5-0.6,1.5-1.4s-0.7-1.4-1.5-1.4s-1.5,0.6-1.5,1.4c0,0,0,0.1,0,0.1l0,0
	c0,0,0,0,0,0c0,0.1,0.1,0.3,0.1,0.4c0.3,0.8,1.2,1.4,2.2,1.4c0.1,0,0.2,0,0.3,0c0.7-0.1,1.2-0.4,1.5-0.8c0.4-0.5,0.5-1.2,0.4-2
	l-0.3-2.3c0.3-0.1,1-0.3,1.3-0.5c1.1-0.6,1.9-1.6,1.9-2.9C273-64.1,271.4-65.3,269.6-65.3z M270.6-73.9c0.6,0.2,0.6,1.4,0.2,2.2
	c-0.5,0.9-1.4,1.7-2.1,2.3c-0.1,0.1-0.3,0.2-0.4,0.4C268.1-73.2,270.6-73.9,270.6-73.9z M269.5-59.4c-0.1,0-0.3,0.1-0.4,0.1
	c-1.2,0.1-2.2-0.1-2.8-0.7c-0.7-0.6-1.3-1.4-1.2-2.7c0.1-1.3,1.2-2.3,2.4-3.4c0.3-0.3,0.7-0.6,1-0.9l0.3,1.9c-0.6,0.2-1.2,0.5-1.6,1
	c-0.4,0.5-0.6,1.1-0.6,1.7c0,0.9,0.7,1.5,1.3,1.7c0.3,0.1,0.5,0.2,0.6,0.1c0,0,0,0,0-0.1l0,0l0,0c-0.8-0.3-1-0.6-1-1.4
	c0-0.9,0.6-1.6,1.6-1.8L269.5-59.4C269.5-59.4,269.5-59.4,269.5-59.4z M269.8-59.5l-0.7-4.5c0.1,0,0.2,0,0.3,0c1.2,0,2,0.9,2.1,1.9
	C271.6-61.3,271.4-60,269.8-59.5z"/>
<line class="st0" x1="262" y1="-76.5" x2="275" y2="-76.5"/>
<text transform="matrix(1.3357 0 0 1 261.9688 -121.0137)" style="font-family:'OratorStd'; font-size:21px; letter-spacing:-3;">BLOCK</text>
<text transform="matrix(1.3357 0 0 1 323.9688 -121.0137)" style="font-family:'OratorStd'; font-size:21px; letter-spacing:-3;">SOUND</text>
<text transform="matrix(0.6191 0 0 1 354 -186.5605)" style="font-family:'OratorStd-Slanted'; font-size:35px; letter-spacing:-3.2;">sound</text>
<path class="st1" d="M326.1-167l-5.2,3.1l-3.2,0l0,6.8l3.2,0l5.3,3.1L326.1-167L326.1-167L326.1-167z M331.8-157.6l-1.8-1.8
	l-1.8,1.8c-0.4,0.4-1.5-0.7-1.1-1.1l1.8-1.8l-1.8-1.8c-0.4-0.4,0.7-1.5,1.1-1.1l1.8,1.8l1.8-1.8c0.4-0.4,1.5,0.7,1.1,1.1l-1.8,1.8
	l1.8,1.8C333.3-158.3,332.2-157.2,331.8-157.6L331.8-157.6z"/>
<text transform="matrix(0.7518 0 0 1 263.9697 -153.9082)" style="font-family:'OratorStd-Slanted'; font-size:24px;">block</text>
<text transform="matrix(0.7518 0 0 1 332.9697 -153.9082)" style="font-family:'OratorStd-Slanted'; font-size:23.99px;">sound</text>
<path class="st1" d="M62.5,8.8l-4.9,2.9l-3,0l0,6.3l3,0l4.9,2.9L62.5,8.8L62.5,8.8L62.5,8.8z M67.9,17.7L66.2,16l-1.7,1.7
	c-0.4,0.4-1.4-0.7-1-1l1.7-1.7l-1.7-1.7c-0.4-0.4,0.7-1.4,1-1.1l1.7,1.7l1.7-1.7c0.4-0.4,1.4,0.7,1,1l-1.7,1.7l1.7,1.7
	C69.3,17,68.3,18.1,67.9,17.7L67.9,17.7z"/>
<g>
	<path d="M1.4,22.1l0.3-1.6h1.1l1.7-10.4H3.3l0.3-1.6h3.2c2.6,0,3.5,1.3,3.1,3.6c-0.2,1.2-0.7,2.2-1.6,2.8c1.1,0.5,1.5,1.7,1.2,3.3
		c-0.4,2.4-1.8,3.9-4,3.9H1.4z M5.5,20.5c1.2,0,2.3-0.3,2.6-2.2c0.2-1.4-0.3-2.4-1.5-2.4H4.7L4,20.5H5.5z M6.4,14.3
		c1.1,0,1.9-1,2.1-2.2c0.3-1.6-0.5-2.1-1.4-2.1H5.6L5,14.3H6.4z"/>
	<path d="M14.9,8.5h1.3l-1.9,12h5.3l-0.3,1.6h-6.6L14.9,8.5z"/>
	<path d="M30.4,15.3c-0.2,1.1-1.2,7-4.7,7c-1.6,0-3.4-1.6-2.5-7c0.9-5.4,3.1-7,4.8-7C29.6,8.3,31.3,9.9,30.4,15.3z M24.6,15.3
		c-0.3,2-0.6,5.4,1.4,5.4s2.8-3.4,3.1-5.4c0.3-2,0.6-5.4-1.4-5.4C25.7,9.9,24.9,13.3,24.6,15.3z"/>
	<path d="M40.3,19.5c-1.1,1.7-2.2,2.8-3.8,2.8c-3,0-3.3-3.6-2.8-7c0.9-5.4,3.3-7,4.9-7c1.6,0,2.3,1.1,2.8,2.9L40,12
		c-0.3-1.1-0.7-2.1-1.7-2.1c-2,0-3,3.3-3.3,5.4c-0.3,2.1-0.5,5.4,1.6,5.4c1.2,0,2-1,2.8-2.2L40.3,19.5z"/>
	<path d="M46.5,14.3H47l4.5-6.1l0.8,1L48,14.9l3,6.4l-1.2,1.1l-3-6.7h-0.4l-1,6.3H44l2.2-13.5h1.3L46.5,14.3z"/>
</g>
<g>
	<path d="M71.4,17.8c0,1.7,0.4,2.9,1.8,2.9c1.1,0,2.1-0.8,2.3-2.3c0.3-1.7-0.7-2.1-1.6-2.6c-1.4-0.8-2.7-1.4-2.3-3.9
		c0.4-2.3,2-3.6,3.6-3.6c1.7,0,2.5,1.3,2.6,3.4l-1.3,0.5c0-1.3-0.4-2.3-1.5-2.3c-0.8,0-1.7,0.6-1.9,1.8c-0.2,1.3,0.3,1.7,1,2.1
		l2,1.3c0.8,0.7,1.1,1.8,0.9,3.2c-0.4,2.6-2,4-3.9,4c-1.9,0-2.8-1.6-2.8-4L71.4,17.8z"/>
	<path d="M88,15.3c-0.2,1.1-1.2,7-4.7,7c-1.6,0-3.4-1.6-2.5-7c0.9-5.4,3.1-7,4.8-7C87.1,8.3,88.9,9.9,88,15.3z M82.1,15.3
		c-0.3,2-0.6,5.4,1.4,5.4s2.8-3.4,3.1-5.4c0.3-2,0.6-5.4-1.4-5.4C83.3,9.9,82.5,13.3,82.1,15.3z"/>
	<path d="M94,8.5l-1.5,9.2c-0.3,2,0,2.9,1.3,2.9c1.6,0,2.1-1,2.5-2.9l1.5-9.2h1.3l-1.6,10.1c-0.3,1.8-1.5,3.7-3.8,3.7
		c-2.2,0-2.9-1.8-2.6-3.8l1.6-10H94z"/>
	<path d="M103,8.5h1.6l2.1,11.4l0.1-0.1l0.4-3.5l1.3-7.9h1.3l-2.2,13.5H106l-2.1-11.4l0,0.1l-0.4,3.5l-1.3,7.8h-1.3L103,8.5z"/>
	<path d="M113.3,8.5h3.4c2.9,0,3.9,1.6,3.1,6.6c-0.7,4.2-1.7,6.9-5.3,6.9h-3.4l0.3-1.6h1.1l1.7-10.4H113L113.3,8.5z M113.7,20.5h1.4
		c1.7,0,2.7-1.3,3.3-5.2c0.7-4.2-0.1-5.2-1.7-5.2h-1.3L113.7,20.5z"/>
</g>
<path class="st1" d="M200.1-37l-5.2,3.1l-3.2,0l0,6.8l3.2,0l5.3,3.1L200.1-37L200.1-37L200.1-37z M205.8-27.6l-1.8-1.8l-1.8,1.8
	c-0.4,0.4-1.5-0.7-1.1-1.1l1.8-1.8l-1.8-1.8c-0.4-0.4,0.7-1.5,1.1-1.1l1.8,1.8l1.8-1.8c0.4-0.4,1.5,0.7,1.1,1.1l-1.8,1.8l1.8,1.8
	C207.3-28.3,206.2-27.2,205.8-27.6L205.8-27.6z"/>
<text transform="matrix(0.7518 0 0 1 136.9697 -23.9082)" style="font-family:'OratorStd-Slanted'; font-size:24px;">block</text>
<text transform="matrix(0.7518 0 0 1 205.9697 -23.9082)" style="font-family:'OratorStd-Slanted'; font-size:23.99px;">sound</text>
<path d="M120.6-96.3c-0.2,0-0.5,0-0.7,0.1l-0.3-2c1.5-1.5,2.5-2.9,2.8-4c0.5-1.7,0.2-3-0.9-3.5l0,0c-0.8-0.2-2.4,0.8-2.9,2.7
	c-0.1,0.5-0.1,1.3,0,1.8c0.1,0.6,0.3,1.2,0.4,1.6c-0.2,0.2-0.5,0.4-0.7,0.6c-0.8,0.7-1.6,1.3-2.2,2.1c-0.7,0.9-1.1,1.7-1.1,2.9
	c0,2.5,2,4,4.5,4l0.1,0c0,0,0,0,0.1,0c0.2,0,0.6,0,0.9,0l0.3,2.3c0.2,1.4-0.5,2.4-1.7,2.5c-0.1,0-0.2,0-0.3,0
	c-0.4,0-0.8-0.1-1.2-0.3c0.1,0,0.3,0,0.4,0c0.8,0,1.5-0.6,1.5-1.4s-0.7-1.4-1.5-1.4c-0.8,0-1.5,0.6-1.5,1.4c0,0,0,0.1,0,0.1l0,0
	c0,0,0,0,0,0c0,0.1,0.1,0.3,0.1,0.4c0.3,0.8,1.2,1.4,2.2,1.4c0.1,0,0.2,0,0.3,0c0.7-0.1,1.2-0.4,1.5-0.8c0.4-0.5,0.5-1.2,0.4-2
	l-0.3-2.3c0.3-0.1,1-0.3,1.3-0.5c1.1-0.6,1.9-1.6,1.9-2.9C124-95.1,122.4-96.3,120.6-96.3z M121.6-104.8c0.6,0.2,0.6,1.4,0.2,2.2
	c-0.5,0.9-1.4,1.7-2.1,2.3c-0.1,0.1-0.3,0.2-0.4,0.4C119.1-104.2,121.6-104.8,121.6-104.8z M120.5-90.4c-0.1,0-0.3,0.1-0.4,0.1
	c-1.2,0.1-2.2-0.1-2.8-0.7c-0.7-0.6-1.3-1.4-1.2-2.7c0.1-1.3,1.2-2.3,2.4-3.4c0.3-0.3,0.7-0.6,1-0.9l0.3,1.9c-0.6,0.2-1.2,0.5-1.6,1
	c-0.4,0.5-0.6,1.1-0.6,1.7c0,0.9,0.7,1.5,1.3,1.7c0.3,0.1,0.5,0.2,0.6,0.1c0,0,0,0,0-0.1l0,0l0,0c-0.8-0.3-1-0.6-1-1.4
	c0-0.9,0.6-1.6,1.6-1.8L120.5-90.4C120.5-90.4,120.5-90.4,120.5-90.4z M120.8-90.5l-0.7-4.5c0.1,0,0.2,0,0.3,0c1.2,0,2,0.9,2.1,1.9
	C122.6-92.3,122.4-91,120.8-90.5z"/>
<text transform="matrix(0.7518 0 0 1 150.9697 -56.9082)" style="font-family:'SourceCodePro-Regular'; font-size:23.9894px;">block</text>
<text transform="matrix(0.7518 0 0 1 201.9697 -56.9082)" style="font-family:'SourceCodePro-Regular'; font-size:23.9894px;">sound</text>
<line class="st0" x1="137" y1="-51.5" x2="150" y2="-51.5"/>
<line class="st0" x1="138" y1="-76.5" x2="149.5" y2="-76.5"/>
<line class="st0" x1="149.5" y1="-51.5" x2="149.5" y2="-76.5"/>
<line class="st0" x1="137.5" y1="-51.5" x2="137.5" y2="-76.5"/>
<path d="M144.3-65.3c-0.2,0-0.4,0-0.6,0.1l-0.2-2c1.2-1.5,1.9-2.9,2.2-4c0.4-1.7,0.2-3-0.7-3.5l0,0c-0.6-0.2-1.9,0.8-2.2,2.7
	c-0.1,0.5-0.1,1.3,0,1.8c0.1,0.6,0.2,1.2,0.3,1.6c-0.2,0.2-0.4,0.4-0.6,0.6c-0.6,0.7-1.2,1.3-1.7,2.1c-0.5,0.9-0.8,1.7-0.8,2.9
	c0,2.5,1.6,4,3.5,4l0,0c0,0,0,0,0.1,0c0.2,0,0.4,0,0.7,0l0.3,2.3c0.2,1.4-0.4,2.4-1.3,2.5c-0.1,0-0.1,0-0.2,0
	c-0.3,0-0.7-0.1-0.9-0.3c0.1,0,0.2,0,0.3,0c0.7,0,1.2-0.6,1.2-1.4s-0.5-1.4-1.2-1.4s-1.2,0.6-1.2,1.4c0,0,0,0.1,0,0.1l0,0
	c0,0,0,0,0,0c0,0.1,0,0.3,0.1,0.4c0.3,0.8,0.9,1.4,1.7,1.4c0.1,0,0.2,0,0.2,0c0.5-0.1,0.9-0.4,1.2-0.8c0.3-0.5,0.4-1.2,0.3-2
	l-0.3-2.3c0.2-0.1,0.8-0.3,1-0.5c0.9-0.6,1.5-1.6,1.5-2.9C147-64.1,145.7-65.3,144.3-65.3z M145.1-73.9c0.5,0.2,0.5,1.4,0.1,2.2
	c-0.4,0.9-1.1,1.7-1.6,2.3c-0.1,0.1-0.2,0.2-0.3,0.4C143.2-73.2,145.1-73.9,145.1-73.9z M144.3-59.4c-0.1,0-0.2,0.1-0.3,0.1
	c-0.9,0.1-1.7-0.1-2.2-0.7c-0.6-0.6-1-1.4-0.9-2.7c0.1-1.3,0.9-2.3,1.8-3.4c0.3-0.3,0.5-0.6,0.8-0.9l0.2,1.9c-0.5,0.2-0.9,0.5-1.3,1
	c-0.3,0.5-0.5,1.1-0.5,1.7c0,0.9,0.5,1.5,1,1.7c0.2,0.1,0.4,0.2,0.5,0.1c0,0,0,0,0-0.1l0,0l0,0c-0.6-0.3-0.8-0.6-0.8-1.4
	c0-0.9,0.5-1.6,1.2-1.8L144.3-59.4C144.3-59.4,144.3-59.4,144.3-59.4z M144.5-59.5l-0.5-4.5c0.1,0,0.2,0,0.2,0
	c0.9,0,1.6,0.9,1.7,1.9C145.9-61.3,145.8-60,144.5-59.5z"/>
<line class="st0" x1="137" y1="-76.5" x2="150" y2="-76.5"/>
<text transform="matrix(0.7518 0 0 1 274.9697 23.0918)" style="font-family:'SourceCodePro-Regular'; font-size:23.9894px;">BLOCK</text>
<text transform="matrix(0.7518 0 0 1 342.9697 23.0918)" style="font-family:'SourceCodePro-Regular'; font-size:23.9894px;">SOUND</text>
<path class="st1" d="M191.1,9l-5.2,3.1l-3.2,0l0,6.8l3.2,0l5.3,3.1L191.1,9L191.1,9L191.1,9z M196.8,18.4l-1.8-1.8l-1.8,1.8
	c-0.4,0.4-1.5-0.7-1.1-1.1l1.8-1.8l-1.8-1.8c-0.4-0.4,0.7-1.5,1.1-1.1l1.8,1.8l1.8-1.8c0.4-0.4,1.5,0.7,1.1,1.1l-1.8,1.8l1.8,1.8
	C198.3,17.7,197.2,18.8,196.8,18.4L196.8,18.4z"/>
<text transform="matrix(0.7518 0 0 1 129.9697 22.0918)" style="font-family:'SourceCodePro-Regular'; font-size:23.9894px;">BLOCK</text>
<text transform="matrix(0.7518 0 0 1 197.9697 21.0918)" style="font-family:'SourceCodePro-Regular'; font-size:23.9894px;">SOUND</text>
<text transform="matrix(0.7518 0 0 1 274.9697 -13.9082)" style="font-family:'SourceCodePro-Regular'; font-size:23.9894px;">block</text>
<text transform="matrix(0.7518 0 0 1 342.9697 -14.9082)" style="font-family:'SourceCodePro-Regular'; font-size:23.9894px;">sound</text>
<g>
	<line class="st0" x1="329" y1="-8.5" x2="342" y2="-8.5"/>
	<line class="st0" x1="330" y1="-33.5" x2="341.5" y2="-33.5"/>
	<line class="st0" x1="341.5" y1="-8.5" x2="341.5" y2="-33.5"/>
	<line class="st0" x1="329.5" y1="-8.5" x2="329.5" y2="-33.5"/>
	<path d="M336.3-22.3c-0.2,0-0.4,0-0.6,0.1l-0.2-2c1.2-1.5,1.9-2.9,2.2-4c0.4-1.7,0.2-3-0.7-3.5l0,0c-0.6-0.2-1.9,0.8-2.2,2.7
		c-0.1,0.5-0.1,1.3,0,1.8c0.1,0.6,0.2,1.2,0.3,1.6c-0.2,0.2-0.4,0.4-0.6,0.6c-0.6,0.7-1.2,1.3-1.7,2.1c-0.5,0.9-0.8,1.7-0.8,2.9
		c0,2.5,1.6,4,3.5,4l0,0c0,0,0,0,0.1,0c0.2,0,0.4,0,0.7,0l0.3,2.3c0.2,1.4-0.4,2.4-1.3,2.5c-0.1,0-0.1,0-0.2,0
		c-0.3,0-0.7-0.1-0.9-0.3c0.1,0,0.2,0,0.3,0c0.7,0,1.2-0.6,1.2-1.4c0-0.8-0.5-1.4-1.2-1.4c-0.7,0-1.2,0.6-1.2,1.4c0,0,0,0.1,0,0.1
		l0,0c0,0,0,0,0,0c0,0.1,0,0.3,0.1,0.4c0.3,0.8,0.9,1.4,1.7,1.4c0.1,0,0.2,0,0.2,0c0.5-0.1,0.9-0.4,1.2-0.8c0.3-0.5,0.4-1.2,0.3-2
		l-0.3-2.3c0.2-0.1,0.8-0.3,1-0.5c0.9-0.6,1.5-1.6,1.5-2.9C339-21.1,337.7-22.3,336.3-22.3z M337.1-30.9c0.5,0.2,0.5,1.4,0.1,2.2
		c-0.4,0.9-1.1,1.7-1.6,2.3c-0.1,0.1-0.2,0.2-0.3,0.4C335.2-30.2,337.1-30.9,337.1-30.9z M336.3-16.4c-0.1,0-0.2,0.1-0.3,0.1
		c-0.9,0.1-1.7-0.1-2.2-0.7c-0.6-0.6-1-1.4-0.9-2.7c0.1-1.3,0.9-2.3,1.8-3.4c0.3-0.3,0.5-0.6,0.8-0.9l0.2,1.9
		c-0.5,0.2-0.9,0.5-1.3,1c-0.3,0.5-0.5,1.1-0.5,1.7c0,0.9,0.5,1.5,1,1.7c0.2,0.1,0.4,0.2,0.5,0.1c0,0,0,0,0-0.1l0,0l0,0
		c-0.6-0.3-0.8-0.6-0.8-1.4c0-0.9,0.5-1.6,1.2-1.8L336.3-16.4C336.3-16.4,336.3-16.4,336.3-16.4z M336.5-16.5l-0.5-4.5
		c0.1,0,0.2,0,0.2,0c0.9,0,1.6,0.9,1.7,1.9C337.9-18.3,337.8-17,336.5-16.5z"/>
	<line class="st0" x1="329" y1="-33.5" x2="342" y2="-33.5"/>
</g>
<g>
	<line class="st0" x1="329" y1="27.5" x2="342" y2="27.5"/>
	<line class="st0" x1="330" y1="2.5" x2="341.5" y2="2.5"/>
	<line class="st0" x1="341.5" y1="27.5" x2="341.5" y2="2.5"/>
	<line class="st0" x1="329.5" y1="27.5" x2="329.5" y2="2.5"/>
	<path d="M336.3,13.7c-0.2,0-0.4,0-0.6,0.1l-0.2-2c1.2-1.5,1.9-2.9,2.2-4c0.4-1.7,0.2-3-0.7-3.5l0,0c-0.6-0.2-1.9,0.8-2.2,2.7
		c-0.1,0.5-0.1,1.3,0,1.8c0.1,0.6,0.2,1.2,0.3,1.6c-0.2,0.2-0.4,0.4-0.6,0.6c-0.6,0.7-1.2,1.3-1.7,2.1c-0.5,0.9-0.8,1.7-0.8,2.9
		c0,2.5,1.6,4,3.5,4l0,0c0,0,0,0,0.1,0c0.2,0,0.4,0,0.7,0l0.3,2.3c0.2,1.4-0.4,2.4-1.3,2.5c-0.1,0-0.1,0-0.2,0
		c-0.3,0-0.7-0.1-0.9-0.3c0.1,0,0.2,0,0.3,0c0.7,0,1.2-0.6,1.2-1.4c0-0.8-0.5-1.4-1.2-1.4c-0.7,0-1.2,0.6-1.2,1.4c0,0,0,0.1,0,0.1
		l0,0c0,0,0,0,0,0c0,0.1,0,0.3,0.1,0.4c0.3,0.8,0.9,1.4,1.7,1.4c0.1,0,0.2,0,0.2,0c0.5-0.1,0.9-0.4,1.2-0.8c0.3-0.5,0.4-1.2,0.3-2
		l-0.3-2.3c0.2-0.1,0.8-0.3,1-0.5c0.9-0.6,1.5-1.6,1.5-2.9C339,14.9,337.7,13.7,336.3,13.7z M337.1,5.1c0.5,0.2,0.5,1.4,0.1,2.2
		c-0.4,0.9-1.1,1.7-1.6,2.3c-0.1,0.1-0.2,0.2-0.3,0.4C335.2,5.8,337.1,5.1,337.1,5.1z M336.3,19.6c-0.1,0-0.2,0.1-0.3,0.1
		c-0.9,0.1-1.7-0.1-2.2-0.7c-0.6-0.6-1-1.4-0.9-2.7c0.1-1.3,0.9-2.3,1.8-3.4c0.3-0.3,0.5-0.6,0.8-0.9l0.2,1.9
		c-0.5,0.2-0.9,0.5-1.3,1c-0.3,0.5-0.5,1.1-0.5,1.7c0,0.9,0.5,1.5,1,1.7c0.2,0.1,0.4,0.2,0.5,0.1c0,0,0,0,0-0.1l0,0l0,0
		c-0.6-0.3-0.8-0.6-0.8-1.4c0-0.9,0.5-1.6,1.2-1.8L336.3,19.6C336.3,19.6,336.3,19.6,336.3,19.6z M336.5,19.5l-0.5-4.5
		c0.1,0,0.2,0,0.2,0c0.9,0,1.6,0.9,1.7,1.9C337.9,17.7,337.8,19,336.5,19.5z"/>
	<line class="st0" x1="329" y1="2.5" x2="342" y2="2.5"/>
</g>
<text transform="matrix(0.7518 0 0 1 206.9697 -206.9082)" style="font-family:'SourceCodePro-Regular'; font-size:23.9894px;">block</text>
<text transform="matrix(0.7518 0 0 1 273.9697 -206.9082)" style="font-family:'SourceCodePro-Regular'; font-size:23.9894px;">sound</text>
<line class="st0" x1="261" y1="-203.5" x2="274" y2="-203.5"/>
<line class="st0" x1="273.5" y1="-203.5" x2="273.5" y2="-226.5"/>
<line class="st0" x1="261.5" y1="-203.5" x2="261.5" y2="-226.5"/>
<path d="M268.3-216.3c-0.2,0-0.4,0-0.6,0.1l-0.2-2c1.2-1.5,1.9-2.9,2.2-4c0.4-1.7,0.2-3-0.7-3.5l0,0c-0.6-0.2-1.9,0.8-2.2,2.7
	c-0.1,0.5-0.1,1.3,0,1.8c0.1,0.6,0.2,1.2,0.3,1.6c-0.2,0.2-0.4,0.4-0.6,0.6c-0.6,0.7-1.2,1.3-1.7,2.1c-0.5,0.9-0.8,1.7-0.8,2.9
	c0,2.5,1.6,4,3.5,4l0,0c0,0,0,0,0.1,0c0.2,0,0.4,0,0.7,0l0.3,2.3c0.2,1.4-0.4,2.4-1.3,2.5c-0.1,0-0.1,0-0.2,0
	c-0.3,0-0.7-0.1-0.9-0.3c0.1,0,0.2,0,0.3,0c0.7,0,1.2-0.6,1.2-1.4c0-0.8-0.5-1.4-1.2-1.4c-0.7,0-1.2,0.6-1.2,1.4c0,0,0,0.1,0,0.1
	l0,0c0,0,0,0,0,0c0,0.1,0,0.3,0.1,0.4c0.3,0.8,0.9,1.4,1.7,1.4c0.1,0,0.2,0,0.2,0c0.5-0.1,0.9-0.4,1.2-0.8c0.3-0.5,0.4-1.2,0.3-2
	l-0.3-2.3c0.2-0.1,0.8-0.3,1-0.5c0.9-0.6,1.5-1.6,1.5-2.9C271-215.1,269.7-216.3,268.3-216.3z M269.1-224.9c0.5,0.2,0.5,1.4,0.1,2.2
	c-0.4,0.9-1.1,1.7-1.6,2.3c-0.1,0.1-0.2,0.2-0.3,0.4C267.2-224.2,269.1-224.9,269.1-224.9z M268.3-210.4c-0.1,0-0.2,0.1-0.3,0.1
	c-0.9,0.1-1.7-0.1-2.2-0.7c-0.6-0.6-1-1.4-0.9-2.7c0.1-1.3,0.9-2.3,1.8-3.4c0.3-0.3,0.5-0.6,0.8-0.9l0.2,1.9c-0.5,0.2-0.9,0.5-1.3,1
	c-0.3,0.5-0.5,1.1-0.5,1.7c0,0.9,0.5,1.5,1,1.7c0.2,0.1,0.4,0.2,0.5,0.1c0,0,0,0,0-0.1l0,0l0,0c-0.6-0.3-0.8-0.6-0.8-1.4
	c0-0.9,0.5-1.6,1.2-1.8L268.3-210.4C268.3-210.4,268.3-210.4,268.3-210.4z M268.5-210.5l-0.5-4.5c0.1,0,0.2,0,0.2,0
	c0.9,0,1.6,0.9,1.7,1.9C269.9-212.3,269.8-211,268.5-210.5z"/>
<line class="st0" x1="261" y1="-226.5" x2="274" y2="-226.5"/>
<text transform="matrix(0.7518 0 0 1 258.9697 -86.9082)" style="font-family:'SourceCodePro-Regular'; font-size:23.9894px;">block</text>
<text transform="matrix(0.7518 0 0 1 325.9697 -86.9082)" style="font-family:'SourceCodePro-Regular'; font-size:23.9894px;">sound</text>
<line class="st0" x1="313" y1="-83.5" x2="326" y2="-83.5"/>
<line class="st0" x1="325.5" y1="-83.5" x2="325.5" y2="-106.5"/>
<line class="st0" x1="313.5" y1="-83.5" x2="313.5" y2="-106.5"/>
<path d="M320.3-96.3c-0.2,0-0.4,0-0.6,0.1l-0.2-2c1.2-1.5,1.9-2.9,2.2-4c0.4-1.7,0.2-3-0.7-3.5l0,0c-0.6-0.2-1.9,0.8-2.2,2.7
	c-0.1,0.5-0.1,1.3,0,1.8c0.1,0.6,0.2,1.2,0.3,1.6c-0.2,0.2-0.4,0.4-0.6,0.6c-0.6,0.7-1.2,1.3-1.7,2.1c-0.5,0.9-0.8,1.7-0.8,2.9
	c0,2.5,1.6,4,3.5,4l0,0c0,0,0,0,0.1,0c0.2,0,0.4,0,0.7,0l0.3,2.3c0.2,1.4-0.4,2.4-1.3,2.5c-0.1,0-0.1,0-0.2,0
	c-0.3,0-0.7-0.1-0.9-0.3c0.1,0,0.2,0,0.3,0c0.7,0,1.2-0.6,1.2-1.4c0-0.8-0.5-1.4-1.2-1.4c-0.7,0-1.2,0.6-1.2,1.4c0,0,0,0.1,0,0.1
	l0,0c0,0,0,0,0,0c0,0.1,0,0.3,0.1,0.4c0.3,0.8,0.9,1.4,1.7,1.4c0.1,0,0.2,0,0.2,0c0.5-0.1,0.9-0.4,1.2-0.8c0.3-0.5,0.4-1.2,0.3-2
	l-0.3-2.3c0.2-0.1,0.8-0.3,1-0.5c0.9-0.6,1.5-1.6,1.5-2.9C323-95.1,321.7-96.3,320.3-96.3z M321.1-104.9c0.5,0.2,0.5,1.4,0.1,2.2
	c-0.4,0.9-1.1,1.7-1.6,2.3c-0.1,0.1-0.2,0.2-0.3,0.4C319.2-104.2,321.1-104.9,321.1-104.9z M320.3-90.4c-0.1,0-0.2,0.1-0.3,0.1
	c-0.9,0.1-1.7-0.1-2.2-0.7c-0.6-0.6-1-1.4-0.9-2.7c0.1-1.3,0.9-2.3,1.8-3.4c0.3-0.3,0.5-0.6,0.8-0.9l0.2,1.9c-0.5,0.2-0.9,0.5-1.3,1
	c-0.3,0.5-0.5,1.1-0.5,1.7c0,0.9,0.5,1.5,1,1.7c0.2,0.1,0.4,0.2,0.5,0.1c0,0,0,0,0-0.1l0,0l0,0c-0.6-0.3-0.8-0.6-0.8-1.4
	c0-0.9,0.5-1.6,1.2-1.8L320.3-90.4C320.3-90.4,320.3-90.4,320.3-90.4z M320.5-90.5l-0.5-4.5c0.1,0,0.2,0,0.2,0
	c0.9,0,1.6,0.9,1.7,1.9C321.9-92.3,321.8-91,320.5-90.5z"/>
<line class="st0" x1="313" y1="-106.5" x2="326" y2="-106.5"/>
<text transform="matrix(0.7518 0 0 1 130.9697 -153.9082)" style="font-family:'AdobeMyungjoStd-Medium-KSCpc-EUC-H'; font-size:23.9894px;">블 록</text>
<text transform="matrix(0.7518 0 0 1 197.9697 -153.9082)" style="font-family:'AdobeMyungjoStd-Medium-KSCpc-EUC-H'; font-size:23.9894px;">사운드</text>
<line class="st0" x1="184" y1="-147.5" x2="197" y2="-147.5"/>
<line class="st0" x1="185" y1="-172.5" x2="196.5" y2="-172.5"/>
<line class="st0" x1="196.5" y1="-147.5" x2="196.5" y2="-172.5"/>
<line class="st0" x1="184.5" y1="-147.5" x2="184.5" y2="-172.5"/>
<path d="M191.3-161.3c-0.2,0-0.4,0-0.6,0.1l-0.2-2c1.2-1.5,1.9-2.9,2.2-4c0.4-1.7,0.2-3-0.7-3.5l0,0c-0.6-0.2-1.9,0.8-2.2,2.7
	c-0.1,0.5-0.1,1.3,0,1.8c0.1,0.6,0.2,1.2,0.3,1.6c-0.2,0.2-0.4,0.4-0.6,0.6c-0.6,0.7-1.2,1.3-1.7,2.1c-0.5,0.9-0.8,1.7-0.8,2.9
	c0,2.5,1.6,4,3.5,4l0,0c0,0,0,0,0.1,0c0.2,0,0.4,0,0.7,0l0.3,2.3c0.2,1.4-0.4,2.4-1.3,2.5c-0.1,0-0.1,0-0.2,0
	c-0.3,0-0.7-0.1-0.9-0.3c0.1,0,0.2,0,0.3,0c0.7,0,1.2-0.6,1.2-1.4c0-0.8-0.5-1.4-1.2-1.4s-1.2,0.6-1.2,1.4c0,0,0,0.1,0,0.1l0,0
	c0,0,0,0,0,0c0,0.1,0,0.3,0.1,0.4c0.3,0.8,0.9,1.4,1.7,1.4c0.1,0,0.2,0,0.2,0c0.5-0.1,0.9-0.4,1.2-0.8c0.3-0.5,0.4-1.2,0.3-2
	l-0.3-2.3c0.2-0.1,0.8-0.3,1-0.5c0.9-0.6,1.5-1.6,1.5-2.9C194-160.1,192.7-161.3,191.3-161.3z M192.1-169.9c0.5,0.2,0.5,1.4,0.1,2.2
	c-0.4,0.9-1.1,1.7-1.6,2.3c-0.1,0.1-0.2,0.2-0.3,0.4C190.2-169.2,192.1-169.9,192.1-169.9z M191.3-155.4c-0.1,0-0.2,0.1-0.3,0.1
	c-0.9,0.1-1.7-0.1-2.2-0.7c-0.6-0.6-1-1.4-0.9-2.7c0.1-1.3,0.9-2.3,1.8-3.4c0.3-0.3,0.5-0.6,0.8-0.9l0.2,1.9c-0.5,0.2-0.9,0.5-1.3,1
	c-0.3,0.5-0.5,1.1-0.5,1.7c0,0.9,0.5,1.5,1,1.7c0.2,0.1,0.4,0.2,0.5,0.1c0,0,0,0,0-0.1l0,0l0,0c-0.6-0.3-0.8-0.6-0.8-1.4
	c0-0.9,0.5-1.6,1.2-1.8L191.3-155.4C191.3-155.4,191.3-155.4,191.3-155.4z M191.5-155.5l-0.5-4.5c0.1,0,0.2,0,0.2,0
	c0.9,0,1.6,0.9,1.7,1.9C192.9-157.3,192.8-156,191.5-155.5z"/>
<line class="st0" x1="184" y1="-172.5" x2="197" y2="-172.5"/>
<text transform="matrix(0.7518 0 0 1 137.9697 -88.9082)" style="font-family:'OratorStd-Slanted'; font-size:23.9894px;">block</text>
<text transform="matrix(0.7518 0 0 1 204.9697 -88.9082)" style="font-family:'OratorStd-Slanted'; font-size:23.9894px;">sound</text>
<line class="st0" x1="191" y1="-82.5" x2="204" y2="-82.5"/>
<line class="st0" x1="192" y1="-107.5" x2="203.5" y2="-107.5"/>
<line class="st0" x1="203.5" y1="-82.5" x2="203.5" y2="-107.5"/>
<line class="st0" x1="191.5" y1="-82.5" x2="191.5" y2="-107.5"/>
<path d="M198.3-96.3c-0.2,0-0.4,0-0.6,0.1l-0.2-2c1.2-1.5,1.9-2.9,2.2-4c0.4-1.7,0.2-3-0.7-3.5l0,0c-0.6-0.2-1.9,0.8-2.2,2.7
	c-0.1,0.5-0.1,1.3,0,1.8c0.1,0.6,0.2,1.2,0.3,1.6c-0.2,0.2-0.4,0.4-0.6,0.6c-0.6,0.7-1.2,1.3-1.7,2.1c-0.5,0.9-0.8,1.7-0.8,2.9
	c0,2.5,1.6,4,3.5,4l0,0c0,0,0,0,0.1,0c0.2,0,0.4,0,0.7,0l0.3,2.3c0.2,1.4-0.4,2.4-1.3,2.5c-0.1,0-0.1,0-0.2,0
	c-0.3,0-0.7-0.1-0.9-0.3c0.1,0,0.2,0,0.3,0c0.7,0,1.2-0.6,1.2-1.4c0-0.8-0.5-1.4-1.2-1.4s-1.2,0.6-1.2,1.4c0,0,0,0.1,0,0.1l0,0
	c0,0,0,0,0,0c0,0.1,0,0.3,0.1,0.4c0.3,0.8,0.9,1.4,1.7,1.4c0.1,0,0.2,0,0.2,0c0.5-0.1,0.9-0.4,1.2-0.8c0.3-0.5,0.4-1.2,0.3-2
	l-0.3-2.3c0.2-0.1,0.8-0.3,1-0.5c0.9-0.6,1.5-1.6,1.5-2.9C201-95.1,199.7-96.3,198.3-96.3z M199.1-104.9c0.5,0.2,0.5,1.4,0.1,2.2
	c-0.4,0.9-1.1,1.7-1.6,2.3c-0.1,0.1-0.2,0.2-0.3,0.4C197.2-104.2,199.1-104.9,199.1-104.9z M198.3-90.4c-0.1,0-0.2,0.1-0.3,0.1
	c-0.9,0.1-1.7-0.1-2.2-0.7c-0.6-0.6-1-1.4-0.9-2.7c0.1-1.3,0.9-2.3,1.8-3.4c0.3-0.3,0.5-0.6,0.8-0.9l0.2,1.9c-0.5,0.2-0.9,0.5-1.3,1
	c-0.3,0.5-0.5,1.1-0.5,1.7c0,0.9,0.5,1.5,1,1.7c0.2,0.1,0.4,0.2,0.5,0.1c0,0,0,0,0-0.1l0,0l0,0c-0.6-0.3-0.8-0.6-0.8-1.4
	c0-0.9,0.5-1.6,1.2-1.8L198.3-90.4C198.3-90.4,198.3-90.4,198.3-90.4z M198.5-90.5l-0.5-4.5c0.1,0,0.2,0,0.2,0
	c0.9,0,1.6,0.9,1.7,1.9C199.9-92.3,199.8-91,198.5-90.5z"/>
<line class="st0" x1="191" y1="-107.5" x2="204" y2="-107.5"/>
</svg>
