<?xml version="1.0" encoding="utf-8"?>
<!-- Generator: Adobe Illustrator 22.1.0, SVG Export Plug-In . SVG Version: 6.00 Build 0)  -->
<svg version="1.1" id="Layer_1" xmlns="http://www.w3.org/2000/svg" xmlns:xlink="http://www.w3.org/1999/xlink" x="0px" y="0px"
	 viewBox="0 0 179.2 88.5" style="enable-background:new 0 0 179.2 88.5;" xml:space="preserve">
<style type="text/css">
	.st0{fill:#482775;}
	.st1{fill:#FFFFFF;}
</style>
<g>
	<g>
		<polygon class="st0" points="137.5,3.3 137.5,35.5 143.2,35.5 143.2,21.4 151.1,21.4 151.1,35.5 156.4,35.5 156.4,3.3 151.1,3.3 
			151.1,16.1 143.2,16.1 143.2,3.3 		"/>
		<path class="st0" d="M134.9,35.5l-6-32.2h-4.3v7l2.3,12.7h-2.3v5.4h3.3l1.7,7L134.9,35.5L134.9,35.5z M124.6,3.3H120l-5,32.2h5.3
			l1-7h3.3v-5.4h-2.3l2-14.4l0.3,1.7V3.3z"/>
		<polygon class="st0" points="87.6,35.5 92.9,35.5 92.9,13.1 97.8,32.2 102.1,32.2 107.1,13.1 107.1,35.5 112.7,35.5 112.7,3.3 
			103.5,3.7 100.2,17.4 96.9,3.3 87.6,3.3 		"/>
		<path class="st0" d="M84.6,35.5l-6-32.2h-4.3v7L76.6,23h-2.3v5.4h3.3l1.7,7L84.6,35.5L84.6,35.5z M74.4,3.3h-4.6l-5,32.2h5.3l1-7
			h3.3v-5.4h-2.6l2.3-14.4l0.3,1.7L74.4,3.3L74.4,3.3z"/>
		<polygon class="st0" points="51.5,35.5 57.8,35.5 57.8,23.5 65.4,3.3 60.1,3.3 55.2,16.8 51.2,3.3 45.3,3.3 51.5,23.5 		"/>
		<path class="st0" d="M19.5,39.9c5.3,0,10.3-2,13.9-5.7c4-3.7,6-9.1,6-14.1c0-5.4-2-10.4-6-14.1c-3.6-4-8.6-6-13.9-6v1
			c5.3,0,9.9,2,13.6,5.4c3.2,3.6,5.2,8.7,5.2,13.7s-2,9.7-5.3,13.4c-3.6,3.7-8.3,5.7-13.6,5.7v0.7H19.5z M19.5,0c-5,0-9.9,2-13.9,6
			C2,9.7,0,14.7,0,20.1c0,5,2,10.4,5.6,14.1c4,3.7,8.9,5.7,13.9,5.7v-0.7c-5,0-9.6-2-13.2-5.7s-5.6-8.4-5.6-13.4S2.7,10,6.3,6.4
			C9.9,3,14.5,1,19.5,1V0z"/>
		<path class="st0" d="M19.8,36.9c4.3,0,8.3-2,11.6-5c3-3,4.6-7.4,4.6-11.7c0-4.7-1.7-8.7-4.6-12.1c-3.3-3-7.3-4.7-11.6-4.7v2
			l0.3,0.3l1,3.4c-0.3,0-0.3,0.3-0.3,0.3c-0.3,0.3-0.3,0.7-0.3,1v0.3c0,0.3,0,0.7,0.3,0.7c0,0.3,0.3,0.7,0.3,0.7
			c0.3,0.3,0.3,0.3,0.3,0.7c0.3,0.7,0.3,1.3,0.3,2v1.3l6.9-4l0.7,1l-7.6,4.4v1.3l1.3,0.7l7.3-4.4l0.7,1l-6.9,4l1.3,0.7
			c0.3,0,0.7,0.3,1,0.7c0.3,0.3,0.3,0.7,0.7,1c0,0.3,0,0.7,0.3,0.7c0,0.3,0,0.3,0.3,0.7c0,0,0.3,0,0.3,0.3c0.3,0,0.3,0,0.7,0
			c0.3,0.3,0.7,0.3,1,0l2.3,2.7c0.3,0.3,0.3,0.3,0.3,0.3v0.3c-0.3,0-0.3,0-0.3,0c-0.3,0-0.3,0-0.3,0l-3.3-0.7c0-0.3-0.3-0.3-0.3-0.7
			c-0.3-0.3-0.3-0.3-0.7-0.7c-0.3,0-0.3,0-0.3,0c-0.3-0.3-0.7-0.3-1-0.3c0,0-0.3,0-0.7,0c0,0.3-0.3,0.3-0.7,0c-0.7,0-1.3,0-1.7-0.3
			l-1.3-0.7v7.7h-1v-8.7l-1-0.3v14.1H19.8z M19.5,36.9c0,0,0,0,0.3,0V22.8h-0.3l-1,0.7v8.4h-1v-7.7l-1.3,0.3
			c-0.3,0.3-0.7,0.7-1.3,0.7c-0.3,0-0.7,0.3-1,0c-0.3,0-0.3,0-0.7,0c-0.3,0-0.3,0-0.7,0c-0.3,0.3-0.3,0.3-0.7,0.3l-0.3,0.3
			c-0.3,0.3-0.7,0.7-0.7,1l-3.3,0.7H7.2c-0.3,0-0.3-0.3-0.3-0.3c0.3,0,0.3-0.3,0.3-0.3l2.3-2.7c0.3,0,0.3,0.3,0.7,0.3
			c0.3-0.3,0.7-0.3,1-0.3c0,0,0-0.3,0.3-0.3c0,0,0.3-0.3,0.3-0.7c0.3,0,0.3-0.3,0.3-0.7l0.3-0.3c0.3-0.7,1-1,1.7-1.3l1-0.7l-6.9-4
			l0.7-1l7.3,4.4l1.3-0.7v-1.3l-7.6-4.4l0.7-1l6.9,4v-1.3c0-0.7,0-1,0-1.3c0-0.7,0.3-1,0.7-1.3l0.3-0.3c0-0.3,0.3-0.3,0.3-0.7
			c0-0.3,0-0.3,0-0.7c0-0.3,0-0.3,0-0.7c-0.3-0.3-0.3-0.7-0.7-0.7l1-3.4c0,0,0,0,0-0.3h0.3V5l0.3,0.3v-2c-0.3,0-0.3,0-0.3,0
			C15.1,3.3,10.8,5,7.8,8c-3,3.4-5,7.4-5,12.1c0,4.4,2,8.7,5,11.7C10.9,34.9,15.2,36.9,19.5,36.9z"/>
		<path class="st0" d="M25.1,23.1v-0.3c0-0.3,0-0.3,0-0.7c-0.3-0.3-0.3-0.3-0.7-0.3l-1.3-1l-1.3,0.7v1.3l1.7,0.7
			c0.3,0.3,0.3,0.3,0.7,0.3c0,0,0.3,0,0.7-0.3C24.8,23.5,24.8,23.1,25.1,23.1z"/>
		<polygon class="st0" points="19.5,21.4 20.8,20.8 20.8,19.4 19.5,18.8 18.5,19.4 18.5,20.8 		"/>
		<path class="st0" d="M18.5,14.7v2l1,0.7l1.3-0.7v-2c0-0.3,0-0.3-0.3-0.7c0,0,0-0.3-0.3-0.3s-0.3,0-0.7,0c0,0,0,0-0.3,0L18.9,14
			C18.5,14.4,18.5,14.4,18.5,14.7z"/>
		<path class="st0" d="M15.8,23.5l1.7-0.7v-1.3l-1.3-0.7l-1.3,1c-0.3,0-0.3,0-0.7,0.3c0,0,0,0.3,0,0.7v0.3c0.3,0,0.3,0.3,0.3,0.3
			c0.3,0.3,0.3,0.3,0.7,0.3C15.5,23.8,15.5,23.8,15.8,23.5z"/>
		<path class="st0" d="M179.2,35.5l-6.3-32.2h-4.3v7l2.6,12.7h-2.6v5.4h3.6l1.3,7L179.2,35.5L179.2,35.5z M168.6,3.3H164l-5,32.2
			h5.3l1.3-7h3v-5.4h-2.3l2-14.4l0.3,1.7V3.3z"/>
	</g>
	<g>
		<polygon class="st1" points="137.5,51.9 137.5,84.1 143.2,84.1 143.2,70 151.1,70 151.1,84.1 156.4,84.1 156.4,51.9 151.1,51.9 
			151.1,64.7 143.2,64.7 143.2,51.9 		"/>
		<path class="st1" d="M134.9,84.1l-6-32.2h-4.3v7l2.3,12.7h-2.3V77h3.3l1.7,7L134.9,84.1L134.9,84.1z M124.6,51.9H120l-5,32.2h5.3
			l1-7h3.3v-5.4h-2.3l2-14.4l0.3,1.7V51.9z"/>
		<polygon class="st1" points="87.6,84.1 92.9,84.1 92.9,61.7 97.8,80.8 102.1,80.8 107.1,61.7 107.1,84.1 112.7,84.1 112.7,51.9 
			103.5,52.3 100.2,66 96.9,51.9 87.6,51.9 		"/>
		<path class="st1" d="M84.6,84.1l-6-32.2h-4.3v7l2.3,12.7h-2.3V77h3.3l1.7,7L84.6,84.1L84.6,84.1z M74.4,51.9h-4.6l-5,32.2h5.3l1-7
			h3.3v-5.4h-2.6l2.3-14.4l0.3,1.7L74.4,51.9L74.4,51.9z"/>
		<polygon class="st1" points="51.5,84.1 57.8,84.1 57.8,72.1 65.4,51.9 60.1,51.9 55.2,65.4 51.2,51.9 45.3,51.9 51.5,72.1 		"/>
		<path class="st1" d="M19.5,88.5c5.3,0,10.3-2,13.9-5.7c4-3.7,6-9.1,6-14.1c0-5.4-2-10.4-6-14.1c-3.6-4-8.6-6-13.9-6v1
			c5.3,0,9.9,2,13.6,5.4c3.2,3.6,5.2,8.7,5.2,13.7s-2,9.7-5.3,13.4c-3.6,3.7-8.3,5.7-13.6,5.7v0.7H19.5z M19.5,48.6
			c-5,0-9.9,2-13.9,6C2,58.3,0,63.3,0,68.7c0,5,2,10.4,5.6,14.1c4,3.7,8.9,5.7,13.9,5.7v-0.7c-5,0-9.6-2-13.2-5.7
			c-3.6-3.7-5.6-8.4-5.6-13.4s2-10.1,5.6-13.7c3.6-3.4,8.2-5.4,13.2-5.4V48.6z"/>
		<path class="st1" d="M19.8,85.5c4.3,0,8.3-2,11.6-5c3-3,4.6-7.4,4.6-11.7c0-4.7-1.7-8.7-4.6-12.1c-3.3-3-7.3-4.7-11.6-4.7v2
			l0.3,0.3l1,3.4c-0.3,0-0.3,0.3-0.3,0.3c-0.3,0.3-0.3,0.7-0.3,1v0.3c0,0.3,0,0.7,0.3,0.7c0,0.3,0.3,0.7,0.3,0.7
			c0.3,0.3,0.3,0.3,0.3,0.7c0.3,0.7,0.3,1.3,0.3,2v1.3l6.9-4l0.7,1l-7.6,4.4v1.3l1.3,0.7l7.3-4.4l0.7,1l-6.9,4l1.3,0.7
			c0.3,0,0.7,0.3,1,0.7c0.3,0.3,0.3,0.7,0.7,1c0,0.3,0,0.7,0.3,0.7c0,0.3,0,0.3,0.3,0.7c0,0,0.3,0,0.3,0.3c0.3,0,0.3,0,0.7,0
			c0.3,0.3,0.7,0.3,1,0l2.3,2.7c0.3,0.3,0.3,0.3,0.3,0.3v0.3c-0.3,0-0.3,0-0.3,0c-0.3,0-0.3,0-0.3,0l-3.3-0.7c0-0.3-0.3-0.3-0.3-0.7
			c-0.3-0.3-0.3-0.3-0.7-0.7c-0.3,0-0.3,0-0.3,0c-0.3-0.3-0.7-0.3-1-0.3c0,0-0.3,0-0.7,0c0,0.3-0.3,0.3-0.7,0c-0.7,0-1.3,0-1.7-0.3
			l-1.3-0.7v7.7h-1v-8.7l-1-0.3v14.1H19.8z M19.5,85.5c0,0,0,0,0.3,0V71.4h-0.3l-1,0.7v8.4h-1v-7.7l-1.3,0.3
			c-0.3,0.3-0.7,0.7-1.3,0.7c-0.3,0-0.7,0.3-1,0c-0.3,0-0.3,0-0.7,0c-0.3,0-0.3,0-0.7,0c-0.3,0.3-0.3,0.3-0.7,0.3l-0.3,0.3
			c-0.3,0.3-0.7,0.7-0.7,1l-3.3,0.7H7.2c-0.3,0-0.3-0.3-0.3-0.3c0.3,0,0.3-0.3,0.3-0.3l2.3-2.7c0.3,0,0.3,0.3,0.7,0.3
			c0.3-0.3,0.7-0.3,1-0.3c0,0,0-0.3,0.3-0.3c0,0,0.3-0.3,0.3-0.7c0.3,0,0.3-0.3,0.3-0.7l0.3-0.3c0.3-0.7,1-1,1.7-1.3l1-0.7l-6.9-4
			l0.7-1l7.3,4.4l1.3-0.7v-1.3l-7.6-4.4l0.7-1l6.9,4v-1.3c0-0.7,0-1,0-1.3c0-0.7,0.3-1,0.7-1.3l0.3-0.3c0-0.3,0.3-0.3,0.3-0.7
			c0-0.3,0-0.3,0-0.7c0-0.3,0-0.3,0-0.7c-0.3-0.3-0.3-0.7-0.7-0.7l1-3.4c0,0,0,0,0-0.3h0.3v-0.5l0.3,0.3v-2c-0.3,0-0.3,0-0.3,0
			c-4.3,0-8.6,1.7-11.6,4.7c-3,3.4-5,7.4-5,12.1c0,4.4,2,8.7,5,11.7C10.9,83.5,15.2,85.5,19.5,85.5z"/>
		<path class="st1" d="M25.1,71.7v-0.3c0-0.3,0-0.3,0-0.7c-0.3-0.3-0.3-0.3-0.7-0.3l-1.3-1l-1.3,0.7v1.3l1.7,0.7
			c0.3,0.3,0.3,0.3,0.7,0.3c0,0,0.3,0,0.7-0.3C24.8,72.1,24.8,71.7,25.1,71.7z"/>
		<polygon class="st1" points="19.5,70 20.8,69.4 20.8,68 19.5,67.4 18.5,68 18.5,69.4 		"/>
		<path class="st1" d="M18.5,63.3v2l1,0.7l1.3-0.7v-2c0-0.3,0-0.3-0.3-0.7c0,0,0-0.3-0.3-0.3s-0.3,0-0.7,0c0,0,0,0-0.3,0l-0.3,0.3
			C18.5,63,18.5,63,18.5,63.3z"/>
		<path class="st1" d="M15.8,72.1l1.7-0.7v-1.3l-1.3-0.7l-1.3,1c-0.3,0-0.3,0-0.7,0.3c0,0,0,0.3,0,0.7v0.3c0.3,0,0.3,0.3,0.3,0.3
			c0.3,0.3,0.3,0.3,0.7,0.3C15.5,72.4,15.5,72.4,15.8,72.1z"/>
		<path class="st1" d="M179.2,84.1l-6.3-32.2h-4.3v7l2.6,12.7h-2.6V77h3.6l1.3,7L179.2,84.1L179.2,84.1z M168.6,51.9H164l-5,32.2
			h5.3l1.3-7h3v-5.4h-2.3l2-14.4l0.3,1.7V51.9z"/>
	</g>
</g>
</svg>
